<?xml version="1.0" standalone="no"?>
<!DOCTYPE svg PUBLIC "-//W3C//DTD SVG 20010904//EN"
 "http://www.w3.org/TR/2001/REC-SVG-20010904/DTD/svg10.dtd">
<svg version="1.0" xmlns="http://www.w3.org/2000/svg"
 width="225.000000pt" height="225.000000pt" viewBox="0 0 225.000000 225.000000"
 preserveAspectRatio="xMidYMid meet">
<metadata>
Created by potrace 1.10, written by Peter Selinger 2001-2011
</metadata>
<g transform="translate(0.000000,225.000000) scale(0.100000,-0.100000)"
fill="#000000" stroke="none">
<path d="M1010 2130 c-154 -17 -331 -82 -464 -171 -33 -22 -102 -82 -151 -132
-133 -135 -212 -275 -259 -458 -31 -122 -39 -224 -26 -335 40 -361 247 -657
565 -809 168 -81 254 -100 455 -99 150 0 173 3 255 28 188 57 312 126 437 245
196 185 302 418 315 691 10 216 -43 404 -169 597 -157 240 -436 409 -737 443
-94 11 -123 11 -221 0z m285 -45 c116 -21 149 -31 261 -85 299 -144 504 -427
545 -754 72 -582 -386 -1096 -977 -1096 -516 0 -949 403 -981 912 -21 329 125
641 395 847 105 81 302 161 452 184 62 10 232 6 305 -8z"/>
<path d="M1001 2011 c-10 -7 -12 -24 -6 -75 l7 -66 39 0 c50 0 79 27 79 75 0
45 -29 75 -72 75 -18 0 -39 -4 -47 -9z m80 -51 c8 -32 -6 -60 -31 -60 -17 0
-20 7 -20 46 0 41 2 45 22 42 14 -2 25 -12 29 -28z"/>
<path d="M1180 2005 c-19 -23 -7 -49 33 -70 20 -11 37 -23 37 -27 0 -14 -41
-8 -56 7 -19 19 -34 19 -34 1 0 -25 30 -46 64 -46 68 0 75 47 14 87 -34 21
-39 28 -24 31 10 2 23 -1 29 -7 16 -16 37 -14 37 4 0 32 -77 48 -100 20z"/>
<path d="M900 1992 c0 -20 23 -128 29 -134 3 -4 12 -4 19 1 11 6 11 20 1 74
-10 54 -16 67 -31 67 -10 0 -18 -4 -18 -8z"/>
<path d="M818 1968 c-9 -7 -21 -29 -26 -48 l-9 -35 -11 28 c-12 28 -26 35 -37
17 -9 -15 46 -130 62 -130 11 0 12 9 7 37 l-7 36 35 -21 c32 -20 68 -21 68 -2
0 4 -18 15 -40 25 -45 20 -46 22 -26 70 16 37 11 43 -16 23z"/>
<path d="M1406 1904 c-38 -43 -46 -58 -35 -64 8 -5 19 -4 26 2 18 15 66 1 59
-17 -3 -9 3 -19 15 -25 19 -11 20 -9 17 72 -4 104 -15 108 -82 32z m60 0 c-3
-9 -6 -20 -6 -25 0 -5 -7 -9 -15 -9 -18 0 -19 4 -3 30 15 24 33 27 24 4z"/>
<path d="M1551 1854 c-37 -47 -23 -103 29 -119 23 -7 63 12 54 26 -3 6 -17 9
-31 7 -37 -4 -51 23 -30 56 22 33 54 34 67 2 14 -37 30 -41 30 -8 0 61 -80 86
-119 36z"/>
<path d="M555 1815 c-29 -28 -30 -34 -11 -60 13 -18 19 -18 57 -8 24 6 46 10
48 8 10 -11 -11 -35 -31 -35 -13 0 -30 -4 -37 -9 -23 -15 35 -26 64 -13 26 12
41 51 31 78 -6 17 -45 16 -90 -2 -14 -5 -17 -3 -14 12 2 11 12 19 23 19 11 0
26 4 34 9 11 7 11 10 0 17 -24 15 -49 10 -74 -16z"/>
<path d="M1035 1834 c-260 -42 -476 -211 -568 -444 -68 -174 -63 -378 13 -547
42 -91 73 -137 145 -208 73 -73 109 -99 198 -142 276 -135 610 -75 826 147
168 171 236 424 179 659 -15 66 -71 184 -115 244 -92 128 -240 230 -398 274
-53 14 -229 25 -280 17z m273 -38 c240 -65 435 -259 498 -496 23 -90 23 -255
-1 -340 -94 -336 -397 -543 -746 -510 -166 16 -300 81 -425 206 -82 82 -152
211 -180 329 -21 92 -14 265 15 348 89 256 300 437 556 477 75 11 213 5 283
-14z"/>
<path d="M907 1517 c-97 -31 -141 -107 -117 -202 12 -45 11 -50 -5 -60 -80
-46 -115 -113 -95 -182 11 -41 36 -80 45 -71 3 3 1 18 -5 34 -26 67 20 155 91
174 43 12 46 21 24 73 -44 105 20 191 139 188 40 0 61 -8 95 -32 24 -17 47
-26 50 -21 15 24 79 52 119 52 52 0 91 -19 126 -60 30 -36 33 -77 11 -140 -19
-55 -19 -60 5 -60 30 0 78 -27 91 -51 6 -12 10 -55 10 -96 -1 -82 8 -87 34
-18 17 42 17 90 0 128 -5 12 -3 17 8 17 8 0 17 -7 21 -15 7 -21 43 -19 55 3
10 16 12 15 32 -8 l21 -25 -7 30 c-3 17 -6 39 -5 50 1 11 2 56 4 100 1 44 7
90 14 102 7 12 12 29 12 39 0 16 -2 16 -20 -1 -14 -13 -17 -21 -9 -26 8 -5 8
-8 0 -13 -6 -4 -11 -4 -11 1 0 4 -12 14 -27 20 -23 11 -29 10 -46 -5 -18 -16
-20 -16 -43 13 -28 36 -37 30 -23 -16 6 -19 11 -80 12 -136 2 -101 2 -102 -18
-87 -11 8 -30 20 -43 26 -21 10 -22 16 -15 52 25 134 -31 215 -161 232 -34 5
-56 1 -99 -19 -54 -25 -55 -25 -94 -7 -55 24 -130 32 -176 17z m673 -129 c0
-12 -4 -16 -11 -12 -7 4 -10 1 -7 -7 5 -17 58 -25 58 -10 0 6 -4 11 -10 11 -5
0 -10 9 -10 20 0 23 6 25 24 8 7 -8 12 -40 12 -80 0 -63 -7 -85 -19 -55 -3 6
-6 -3 -6 -20 -1 -18 -6 -33 -12 -33 -7 0 -10 12 -7 30 5 35 -13 46 -36 21 -9
-10 -13 -26 -10 -41 5 -20 3 -22 -5 -10 -15 21 -13 56 4 73 8 9 11 17 5 19
-14 5 -18 94 -3 91 7 -2 10 4 7 12 -5 11 -2 13 10 9 9 -3 16 -15 16 -26z"/>
<path d="M548 1366 c-53 -40 -18 -127 50 -125 l37 1 -33 12 c-63 22 -68 81
-10 109 l33 17 -30 -1 c-16 0 -38 -6 -47 -13z"/>
<path d="M698 1331 c-5 -21 12 -39 33 -34 22 6 13 40 -11 46 -12 3 -20 -1 -22
-12z"/>
<path d="M998 1056 c84 -148 80 -306 -8 -339 -17 -6 -30 -14 -30 -17 0 -3 70
-5 156 -5 142 0 153 1 132 15 -45 29 -67 62 -78 117 -10 47 -9 66 7 126 10 40
28 86 41 105 12 18 22 38 22 43 0 16 -90 -91 -108 -128 -9 -18 -19 -33 -24
-33 -4 0 -16 17 -27 38 -21 42 -87 125 -104 131 -6 2 4 -22 21 -53z m132 -159
c11 3 11 2 3 -4 -10 -7 -9 -18 0 -50 7 -23 16 -45 20 -49 11 -11 8 -64 -3 -64
-5 0 -10 6 -10 13 0 7 -3 8 -8 2 -10 -15 -42 -18 -42 -4 0 9 -3 9 -14 0 -12
-11 -13 -7 -3 26 6 21 15 41 20 44 10 7 6 51 -8 83 -7 16 -5 17 11 9 10 -6 26
-8 34 -6z"/>
<path d="M806 989 c-3 -19 -1 -38 5 -46 17 -20 7 -24 -32 -13 -73 21 -83 0
-14 -31 37 -17 45 -24 45 -47 0 -35 -26 -146 -45 -194 -20 -51 -6 -48 28 6 15
24 34 50 42 56 13 10 16 7 21 -19 9 -42 24 -50 24 -13 0 16 7 49 15 72 8 23
15 57 15 76 0 25 12 46 50 90 28 31 50 61 50 66 0 15 -19 8 -30 -12 -10 -19
-59 -50 -79 -50 -6 0 -8 13 -4 32 7 36 -14 58 -58 58 -22 0 -28 -6 -33 -31z
m68 5 c18 -18 18 -17 10 -38 -10 -27 -74 -14 -74 15 0 10 30 39 40 39 5 0 16
-7 24 -16z m48 -87 c-12 -13 -22 -36 -22 -51 0 -15 -5 -48 -11 -74 -12 -50
-29 -78 -29 -49 0 26 -16 20 -45 -15 -24 -30 -26 -31 -19 -8 17 57 24 97 24
137 0 39 -3 44 -32 56 -31 13 -29 14 44 11 43 -2 80 1 83 6 3 6 11 10 17 10 6
0 2 -10 -10 -23z"/>
<path d="M1360 1009 c-42 -9 -59 -30 -52 -65 6 -31 1 -29 -60 19 -50 38 -48
18 2 -37 38 -41 40 -47 40 -105 0 -47 3 -61 15 -61 9 0 19 -17 26 -45 13 -51
29 -60 29 -15 0 35 15 39 31 8 6 -13 23 -35 36 -50 16 -16 22 -31 18 -40 -6
-10 -5 -10 4 -2 10 9 7 27 -14 85 -20 56 -23 74 -13 80 10 6 9 14 -5 38 -25
42 -22 67 11 80 26 10 72 44 72 54 0 3 -22 -4 -50 -16 -27 -11 -52 -19 -54
-16 -2 2 -2 17 1 32 4 21 10 26 23 22 9 -3 22 0 28 8 15 18 -43 35 -88 26z
m28 -46 c-2 -22 -9 -29 -31 -31 -18 -2 -29 2 -33 12 -11 28 4 46 36 46 28 0
31 -3 28 -27z m-20 -53 c49 0 54 -2 38 -13 -15 -11 -17 -21 -12 -48 3 -19 8
-50 10 -69 2 -19 9 -48 15 -64 17 -44 7 -41 -24 6 l-28 41 -12 -29 -12 -29 -7
38 c-4 24 -12 37 -23 37 -13 0 -14 8 -9 51 6 42 4 55 -11 72 -17 20 -17 20 0
14 10 -4 44 -7 75 -7z"/>
<path d="M1692 1726 c-53 -27 -61 -34 -49 -44 8 -7 21 -10 29 -7 18 7 42 -20
35 -39 -3 -8 0 -20 8 -26 11 -9 20 0 45 50 30 60 33 101 7 100 -7 -1 -41 -16
-75 -34z m52 -32 c-13 -19 -19 -22 -25 -12 -6 8 -2 18 8 26 27 20 35 14 17
-14z"/>
<path d="M423 1679 c-7 -7 5 -25 41 -59 l51 -49 40 39 c32 32 37 42 26 52 -10
11 -17 7 -36 -17 l-24 -30 -39 38 c-42 41 -43 42 -59 26z"/>
<path d="M1808 1614 c-32 -20 -58 -40 -58 -46 0 -23 52 -78 73 -78 34 0 87 37
87 60 0 18 -36 101 -43 100 -1 0 -28 -17 -59 -36z m66 -30 c16 -40 -46 -82
-71 -48 -12 17 -11 21 14 41 33 27 49 29 57 7z"/>
<path d="M345 1560 c-14 -22 -25 -43 -25 -47 0 -10 103 -73 118 -73 22 0 19
28 -4 39 -27 12 -30 23 -10 40 11 9 19 9 36 -1 17 -11 22 -11 30 2 12 18 13
31 3 28 -15 -4 -55 14 -74 33 -28 28 -46 23 -74 -21z m59 -9 c3 -4 -1 -17 -9
-27 -16 -23 -40 -7 -29 19 7 18 29 23 38 8z"/>
<path d="M1890 1457 c-30 -11 -57 -22 -59 -23 -1 -1 5 -25 14 -53 10 -32 22
-51 32 -51 11 0 14 6 8 23 -17 55 -17 67 -2 67 8 0 20 -13 26 -30 13 -39 36
-41 26 -3 -11 44 -11 45 2 50 6 2 16 -12 23 -31 6 -21 18 -36 27 -36 9 0 13 6
10 14 -3 8 -11 32 -18 55 -14 46 -14 46 -89 18z"/>
<path d="M324 1403 c-78 -6 -78 -29 1 -86 52 -38 64 -43 70 -30 3 9 1 21 -5
27 -18 18 -12 56 9 56 10 0 21 9 24 20 4 17 1 20 -21 18 -15 -1 -50 -3 -78 -5z"/>
<path d="M1940 1307 c-76 -12 -72 -10 -65 -29 5 -13 14 -14 47 -6 63 14 69 3
10 -16 -39 -13 -52 -22 -50 -34 2 -13 16 -18 56 -20 66 -4 68 -22 2 -22 -44 0
-50 -3 -50 -21 0 -17 5 -20 28 -15 15 3 49 8 75 12 43 6 47 9 41 28 -9 29 -7
28 -59 34 -51 5 -49 13 8 32 32 10 37 16 37 41 0 16 -3 28 -7 28 -5 -1 -37 -6
-73 -12z"/>
<path d="M237 1208 c-4 -28 -5 -53 -4 -54 1 0 35 -4 75 -8 l72 -6 0 50 c0 27
0 53 0 58 0 4 -6 7 -12 7 -8 0 -14 -16 -16 -37 -4 -51 -32 -53 -32 -3 0 24 -5
35 -15 35 -11 0 -15 -11 -15 -36 0 -24 -4 -34 -12 -31 -8 2 -12 18 -10 40 3
27 0 37 -11 37 -10 0 -16 -16 -20 -52z"/>
<path d="M258 1098 c-18 -14 -21 -26 -19 -75 1 -37 12 -39 103 -27 37 5 45 10
41 24 -3 12 -12 16 -29 12 -19 -3 -24 0 -24 17 0 20 -32 61 -48 61 -5 0 -15
-6 -24 -12z m42 -47 c0 -21 -26 -36 -36 -20 -9 15 3 39 21 39 8 0 15 -9 15
-19z"/>
<path d="M1990 1089 c-19 -10 -52 -18 -72 -19 -31 0 -38 -4 -38 -20 0 -16 7
-20 31 -20 17 0 45 -11 63 -25 18 -14 38 -25 44 -25 24 0 11 31 -20 50 l-33
20 32 6 c19 4 33 14 36 25 7 27 -3 30 -43 8z"/>
<path d="M334 883 c1 -23 -4 -30 -29 -40 l-30 -11 33 -12 c27 -10 32 -17 32
-43 l1 -32 23 29 c20 24 27 26 44 17 36 -19 46 -12 22 14 -21 22 -22 29 -12
45 17 28 16 30 -17 24 -23 -5 -32 -2 -43 15 -18 29 -27 26 -24 -6z m60 -41 c2
-4 -6 -12 -19 -18 -20 -10 -23 -9 -22 7 1 19 31 27 41 11z"/>
<path d="M1870 866 c0 -3 4 -16 10 -30 8 -21 5 -28 -18 -45 l-27 -20 50 -1
c34 0 45 -3 36 -9 -11 -7 -12 -15 -5 -32 10 -22 11 -21 24 10 12 29 17 32 42
27 33 -6 37 8 7 25 -17 8 -20 17 -15 40 6 33 4 35 -28 14 -21 -14 -24 -13 -41
5 -16 18 -35 27 -35 16z"/>
<path d="M417 694 l-38 -25 21 -30 c12 -16 26 -26 31 -23 6 4 3 14 -7 25 -9
11 -14 22 -10 27 4 4 14 -2 22 -12 7 -11 17 -17 20 -13 4 4 1 13 -6 22 -7 9
-10 19 -6 23 4 4 15 -4 25 -17 10 -13 21 -20 24 -15 3 5 -5 21 -17 36 l-22 28
-37 -26z"/>
<path d="M1807 698 c-6 -22 15 -47 41 -48 17 0 15 17 -3 24 -8 3 -15 12 -15
20 0 24 -17 27 -23 4z"/>
<path d="M1761 636 c-16 -20 3 -56 29 -56 27 0 42 31 25 53 -15 21 -38 22 -54
3z"/>
<path d="M467 608 c-10 -17 -14 -35 -9 -40 10 -10 72 10 72 24 0 6 -7 7 -15 4
-51 -21 -51 -21 -31 3 12 13 16 25 10 31 -6 6 -16 -3 -27 -22z"/>
<path d="M1726 591 c-4 -7 -2 -19 5 -27 11 -13 9 -14 -14 -9 -38 10 -34 -8 5
-23 42 -16 51 -5 29 37 -12 22 -21 30 -25 22z"/>
<path d="M510 545 c-17 -20 -3 -49 26 -53 19 -3 19 -2 0 12 -17 14 -17 16 -3
31 10 9 18 11 22 5 3 -5 1 -10 -5 -10 -6 0 -8 -4 -5 -10 11 -18 26 -10 23 13
-4 27 -39 35 -58 12z"/>
<path d="M1647 524 c-12 -12 -8 -42 9 -58 18 -19 54 -5 54 21 0 15 -2 14 -19
-1 -17 -15 -19 -15 -25 -1 -9 24 -8 26 8 23 8 -2 16 2 18 7 4 12 -35 19 -45 9z"/>
<path d="M577 484 c-23 -31 -15 -44 12 -20 11 10 25 15 31 11 8 -5 11 -1 8 11
-5 28 -31 27 -51 -2z"/>
<path d="M1586 502 c-4 -7 -1 -19 8 -27 8 -8 18 -24 21 -35 7 -21 20 -26 29
-12 3 5 -5 19 -18 33 -13 14 -25 31 -28 39 -3 10 -6 11 -12 2z"/>
<path d="M634 445 c-3 -20 -12 -35 -20 -35 -16 0 -19 -16 -4 -25 10 -6 89 44
90 58 0 11 -25 8 -39 -5 -10 -11 -11 -8 -6 15 5 17 3 27 -3 27 -6 0 -14 -16
-18 -35z"/>
<path d="M1516 451 c-7 -11 32 -81 45 -81 13 0 12 5 -12 47 -26 47 -26 46 -33
34z"/>
<path d="M1550 446 c0 -11 48 -55 53 -50 9 9 -23 54 -39 54 -8 0 -14 -2 -14
-4z"/>
<path d="M706 414 c-21 -21 -20 -41 3 -54 11 -5 22 -10 25 -10 8 0 36 31 36
40 0 11 -29 40 -40 40 -5 0 -16 -7 -24 -16z m40 -15 c8 -14 -11 -33 -25 -25
-11 7 -4 36 9 36 5 0 12 -5 16 -11z"/>
<path d="M1460 395 c-6 -8 -9 -23 -5 -35 9 -28 58 -24 64 5 3 19 3 19 -17 2
-18 -16 -20 -16 -26 -2 -9 24 -8 25 14 25 11 0 20 5 20 10 0 15 -36 12 -50 -5z"/>
<path d="M1376 388 c-9 -27 -14 -98 -7 -98 3 0 15 9 24 21 15 17 21 18 33 8
29 -24 25 1 -7 40 -36 45 -38 47 -43 29z"/>
<path d="M783 360 c-9 -24 -9 -30 2 -30 7 0 15 9 18 20 3 11 11 20 17 20 8 0
9 -7 5 -17 -4 -10 -9 -24 -12 -30 -3 -7 2 -13 10 -13 9 0 18 13 22 31 8 35 8
35 -25 44 -21 5 -27 1 -37 -25z"/>
<path d="M871 338 c-16 -42 29 -66 54 -31 9 12 10 23 4 35 -14 25 -48 22 -58
-4z"/>
<path d="M993 338 c-1 -13 -5 -33 -8 -45 -4 -16 -1 -23 10 -23 10 0 15 10 15
29 0 16 3 36 6 45 4 10 1 16 -8 16 -7 0 -15 -10 -15 -22z"/>
<path d="M1242 300 c2 -19 8 -34 13 -32 6 2 9 14 7 27 -4 33 16 32 24 0 8 -31
24 -33 24 -2 0 34 -13 47 -44 45 -24 -2 -27 -6 -24 -38z"/>
<path d="M1040 310 c0 -11 7 -20 15 -20 8 0 15 -4 15 -9 0 -5 -10 -7 -22 -4
-18 4 -20 3 -12 -6 14 -16 56 -11 62 7 2 7 -5 16 -17 19 -12 3 -21 9 -21 13 0
5 10 6 22 2 14 -3 19 -2 14 6 -4 7 -18 12 -32 12 -17 0 -24 -5 -24 -20z"/>
<path d="M1158 323 c-3 -4 -5 -20 -6 -35 -2 -25 1 -28 32 -28 32 0 33 1 27 33
-5 22 -13 33 -28 35 -12 2 -23 0 -25 -5z"/>
</g>
</svg>
